<svg width="997" height="716" viewBox="0 0 997 716" fill="none" xmlns="http://www.w3.org/2000/svg">
<path d="M215.5 440.5C290 347.5 235 226.5 292.5 97.5C350 -31.5 381.5 186 409 151.5C436.5 117 490 42 665 6C840 -30 767 122 876 97.5C985 73 1103.5 330 820 523.5C536.5 717 331 774 393.5 649C456 524 45.0001 662.5 6.00008 570.5C-32.9999 478.5 141 533.5 215.5 440.5Z" fill="#A0C3D2"/>
<path d="M371.761 372.701C343.261 387.701 333 394.5 315.5 444C298 493.5 311.261 501.201 311.261 501.201L688.261 493.201L700.261 440.701C700.261 440.701 704.261 423.701 700.261 413.701C696.261 403.701 690.761 390.701 676.261 379.701C661.761 368.701 618.761 357.701 618.761 357.701C618.761 357.701 555.761 335.701 490.261 342.201C424.761 348.701 400.261 357.701 371.761 372.701Z" fill="#965656"/>
<path d="M613 216.5C604.438 215.741 600.222 212.677 599.083 208.255C587.545 201.558 572.153 192.988 566.5 191.5C557 189 540 176.5 534.5 178.5C529 180.5 516 172.5 534.5 170C553 167.5 549.5 173.5 560 170C570.5 166.5 566.5 164.5 566.5 164.5L538 138.5L529.5 132.5C529.5 132.5 530 132.5 524 129C518 125.5 514 115 524 118C534 121 562 140.5 562 140.5C562 140.5 518 103 522 97.5C526 92 533 97.5 533 97.5L571 131.5L552 108C552 108 543.5 99.5 541 95C538.5 90.5 540 85 547 88C554 91 578.5 123 578.5 123C578.5 123 587.5 125.5 583.5 117C579.5 108.5 574 101.5 571 98.5C568 95.5 568.5 84.5 573 88C577.5 91.5 587.5 103 587.5 103L632 161.5C615.232 174.623 596.02 196.355 599.083 208.255C606.934 212.811 613 216.5 613 216.5Z" fill="#ECC3AC"/>
<path d="M608.5 390C619.5 357 642 345 642 345L635.5 314.5C635.5 314.5 625 272.5 616 239C607 205.5 620.5 227.5 602 214C583.5 200.5 608 160 625 152.5C642 145 691 219.5 702 239C713 258.5 736.5 340.5 736 348.5C735.5 356.5 713.5 474 689.5 493.5C665.5 513 616 493.5 602 493.5C588 493.5 597.5 423 608.5 390Z" fill="#AB6262"/>
<path d="M439 373C437.5 371 439 356 439 356C439 356 517 311.5 517 319C517 326.5 518.5 363.5 513.5 368.5C508.5 373.5 473.764 402.596 464 402C454.236 401.403 440.5 375 439 373Z" fill="#D3AF9B"/>
<path d="M476.976 195.423L494.276 201.504C494.276 201.504 497.767 194.942 500.531 193.327C503.296 191.711 503.223 192.206 506.191 192.642C509.159 193.079 509.086 193.573 510.425 194.781C511.764 195.988 513.801 199.32 513.801 199.32C513.801 199.32 516.958 205.343 517.73 206.973C518.501 208.602 518.444 222.744 526.068 225.886C533.692 229.028 519.145 259.234 519.145 259.234C519.145 259.234 511.304 274.759 502.385 276.985C493.467 279.212 394.167 284.326 394.167 284.326C394.167 284.326 370.607 217.692 379.35 206.342C388.094 194.993 426.023 187.934 426.023 187.934C426.023 187.934 441.94 186.231 453.042 186.346C464.143 186.462 470.269 192.921 476.976 195.423Z" fill="#010101"/>
<path d="M436.226 383.441C418.534 386.905 413.789 353.863 410.704 347.345C409.985 345.826 409.142 340.663 408.308 333.348C407.926 329.992 399.4 334.587 399.034 330.469C398.829 328.164 400.189 320.74 401.575 313.179L404.269 294.852C402.68 271.524 403.575 256.733 405.11 244.438C407.96 221.61 461.602 210.796 461.602 210.796L532.315 245.447C532.315 245.447 526.137 321.861 516.695 331.086C507.253 340.311 453.918 379.977 436.226 383.441Z" fill="#ECC3AC"/>
<path d="M472.586 307.981L477.597 299.071C477.597 299.071 487.014 281.16 495.463 286.623C503.912 292.086 500.106 305.394 500.106 305.394C500.106 305.394 491.896 323.482 482.322 321.472C472.749 319.461 472.586 307.981 472.586 307.981Z" fill="#DBB5A0"/>
<path d="M504.667 192.868L521.967 198.948C521.967 198.948 525.458 192.386 528.223 190.771C530.987 189.156 530.914 189.65 533.882 190.087C536.851 190.523 536.778 191.017 538.116 192.225C539.455 193.432 541.492 196.764 541.492 196.764C541.492 196.764 544.65 202.787 545.421 204.417C546.192 206.046 546.135 220.188 553.759 223.33C561.383 226.473 546.836 256.678 546.836 256.678C546.836 256.678 538.995 272.203 530.076 274.43C521.158 276.656 421.859 281.77 421.859 281.77C421.859 281.77 398.298 215.136 407.042 203.787C415.785 192.437 453.715 185.378 453.715 185.378C453.715 185.378 469.632 183.675 480.733 183.79C491.834 183.906 497.96 190.366 504.667 192.868Z" fill="#181818"/>
<path d="M430.968 302.313C430.767 303.679 429.497 304.624 428.131 304.423C426.765 304.223 425.82 302.952 426.021 301.586C426.222 300.22 427.492 299.276 428.858 299.476C430.224 299.677 431.169 300.947 430.968 302.313Z" fill="black" fill-opacity="0.8"/>
<path d="M520.887 148.288C519.171 146.322 517.132 138.186 517.132 138.186L516.713 134.108C516.713 134.108 516.873 132.982 515.451 133.163C514.028 133.344 514.599 139.166 514.599 139.166L515.329 143.863L518.506 151.012C518.506 151.012 521.236 154.27 524.677 155.332C528.118 156.394 527.071 155.743 531.327 156.276C531.327 156.276 532.11 156.387 533.496 155.052C534.882 153.718 533.895 152.238 530.295 152.301C526.694 152.365 526.578 151.774 526.578 151.774C526.578 151.774 522.604 150.254 520.887 148.288Z" fill="#050505"/>
<path d="M512.884 155.678C510.614 153.078 507.917 142.315 507.917 142.315L507.363 136.92C507.363 136.92 507.574 135.431 505.692 135.671C503.811 135.91 504.566 143.612 504.566 143.612L505.532 149.825L509.733 159.282C509.733 159.282 513.345 163.592 517.897 164.997C522.449 166.402 521.065 165.54 526.694 166.245C526.694 166.245 527.729 166.392 529.563 164.626C531.397 162.861 530.091 160.904 525.328 160.988C520.565 161.072 520.412 160.29 520.412 160.29C520.412 160.29 515.155 158.279 512.884 155.678Z" fill="#050505"/>
<path d="M595.978 82.7935C597.656 84.7919 599.539 92.965 599.539 92.965L599.88 97.0507C599.88 97.0507 599.699 98.1731 601.125 98.0193C602.55 97.8655 602.091 92.0333 602.091 92.0333L601.45 87.3235L598.411 80.1153C598.411 80.1153 595.743 76.8057 592.323 75.6779C588.903 74.5501 589.937 75.2215 585.692 74.6077C585.692 74.6077 584.912 74.4818 583.501 75.7894C582.089 77.0971 583.048 78.5953 586.649 78.6008C590.25 78.6062 590.354 79.1988 590.354 79.1988C590.354 79.1988 594.299 80.7952 595.978 82.7935Z" fill="#050505"/>
<path d="M606.205 70.8872C608.778 73.2274 612.394 83.2402 612.394 83.2402L613.37 88.2987C613.37 88.2987 613.257 89.7126 615.214 89.3948C617.172 89.077 615.817 81.8537 615.817 81.8537L614.349 76.0444L609.249 67.3359C609.249 67.3359 605.143 63.4503 600.263 62.3486C595.382 61.247 596.898 61.9915 590.938 61.6032C590.938 61.6032 589.84 61.5155 588.044 63.2692C586.248 65.0229 587.762 66.8041 592.755 66.4917C597.748 66.1794 597.966 66.9083 597.966 66.9083C597.966 66.9083 603.632 68.547 606.205 70.8872Z" fill="#050505"/>
</svg>
